<?xml version="1.0" encoding="UTF-8"?>
<svg version="1.1" viewBox="0 0 30.032249 30.032249" xmlns="http://www.w3.org/2000/svg">
 <path d="m19.27025 15.00425 9.883-9.883c1.172-1.171 1.172-3.071 0-4.243-1.172-1.171-3.07-1.171-4.242 0l-9.883 9.883-9.883-9.882c-1.171-1.172-3.071-1.172-4.243 0-1.171 1.171-1.171 3.071 0 4.243l9.883 9.882-9.907 9.907c-1.171 1.171-1.171 3.071 0 4.242 0.585 0.586 1.354 0.879 2.121 0.879s1.536-0.293 2.122-0.879l9.906-9.906 9.882 9.882c0.586 0.586 1.354 0.879 2.121 0.879s1.535-0.293 2.121-0.879c1.172-1.171 1.172-3.071 0-4.242z" fill="#34404b"/>
</svg>
