<?xml version="1.0" encoding="UTF-8"?>
<svg id="svg_mastercard" version="1.1" viewBox="0 0 512 323" xmlns="http://www.w3.org/2000/svg">
 <style type="text/css">.st0{fill-rule:evenodd;clip-rule:evenodd;fill:#DFDFE0;}
	.st1{fill-rule:evenodd;clip-rule:evenodd;fill:#FCB131;}
	.st2{fill-rule:evenodd;clip-rule:evenodd;fill:#ED1B2E;}
	.st3{fill-rule:evenodd;clip-rule:evenodd;fill:#FFFFFF;}
	.st4{fill-rule:evenodd;clip-rule:evenodd;fill:#003473;}</style>
 <g transform="translate(0,-94.5)" clip-rule="evenodd" fill-rule="evenodd">
  <path class="st0" d="m489.2 94.5h-467.3c-9.1 0-14.8 1.4-17.9 4.3-2.7 3.3-4 8.7-4 16.7v280.3c0 14.3 7.4 21.7 21.9 21.7h467.3c15.2 0 22.8-7.4 22.8-21.7v-280.4c0-14.1-7.6-20.9-22.8-20.9z" fill="#dfdfe0"/>
  <path class="st1" d="m256 341c20.2 18.5 47.1 29.7 76.5 29.7 63 0 114-51.4 114-114.7 0-63.4-51.1-114.7-114-114.7-29.5 0-56.3 11.2-76.5 29.7-23 21-37.5 51.3-37.5 85s14.5 64.1 37.5 85z" fill="#fcb131"/>
  <path class="st2" d="m292.9 243.8c-0.4-4.1-1.1-8.2-1.9-12.1h-69.8c0.9-4.1 2-8.2 3.3-12.1h63.2c-1.4-4.2-3-8.2-4.8-12.2h-53.5c2-4.2 4.2-8.2 6.6-12.1h40.4c-2.6-4.2-5.5-8.3-8.7-12.1h-23c3.5-4.3 7.4-8.4 11.5-12.1-20.2-18.5-47.1-29.7-76.5-29.7-63 0-114 51.4-114 114.7 0 63.4 51.1 114.7 114 114.7 29.5 0 56.3-11.2 76.5-29.7 4.1-3.8 8-7.8 11.5-12.1h-23c-3.1-3.8-6-7.9-8.7-12.1h40.4c2.4-3.9 4.6-8 6.6-12.1h-53.5c-1.8-3.9-3.5-8-4.9-12.1h63.2c1.3-4 2.4-8 3.3-12.1 0.9-4 1.5-8 1.9-12.2 0.4-4 0.6-8 0.6-12.1-0.1-4.4-0.3-8.5-0.7-12.5z" fill="#ed1b2e"/>
  <g fill="#003473">
   <path class="st4" d="m217.2 289.1c-3.8 1.1-6.5 1.5-9.3 1.5-5.8 0-9.4-3.7-9.4-10.4 0-1.3 0.1-2.7 0.4-4.2l0.7-4.6 0.6-3.7 5.4-32.3h11.9l-1.4 7h7.4l-1.8 11.9h-7.5l-3.2 19.3c-0.1 0.9-0.2 1.5-0.2 2 0 2.4 1.3 3.5 4.2 3.5 1.4 0 2.5-0.1 3.8-0.4z"/>
   <path class="st4" d="m255.5 288.7c-4.2 1.3-8.3 1.9-12.7 1.9-13.2 0-21-7.3-21-21.2 0-16.2 9.2-28.2 21.6-28.2 10.2 0 16.7 6.7 16.7 17.2 0 3.5-0.4 6.9-1.5 11.7h-24.6c-0.1 0.7-0.1 1.1-0.1 1.5 0 5.5 3.7 8.3 10.9 8.3 4.4 0 8.4-0.9 12.9-3zm-7.4-28.2c0.1-1 0.1-1.8 0.1-2.4 0-3.8-2.2-6.1-5.9-6.1-3.9 0-6.8 3-7.9 8.5z"/>
   <polygon class="st4" points="117.5 245 101.6 289.7 93.2 289.7 92.2 245.2 84.7 289.7 72.7 289.7 82.4 231.5 100.2 231.5 100.7 267.6 112.7 231.5 132.3 231.5 122.8 289.7 110.4 289.7"/>
   <path class="st4" d="m152.5 268.6c-1.3-0.2-1.5-0.2-2.4-0.2-7 0-10.6 2.7-10.6 7.2 0 2.9 1.7 4.8 4.4 4.8 6 0.1 8.4-4.8 8.6-11.8zm9.8 21.1h-10.7l0.2-4.9c-2.7 3.7-6.4 5.7-13 5.7-6 0-11-5.3-11-12.9 0-2.3 0.4-4.3 0.9-6.2 2-7.3 9.3-11.9 20.5-12.1 1.4 0 3.6 0 5.4 0.2 0.4-1.6 0.5-2.2 0.5-3.1 0-3.1-2.6-4.1-8.3-4.1-3.5 0-7.5 0.6-10.2 1.4l-1.7 0.5-0.7 0.2 1.7-10.6c5.8-1.8 9.8-2.5 14.4-2.5 10.6 0 16.3 4.8 16.3 13.9 0 2.3 0.2 4.1-0.6 9.4l-2.6 16.8-0.4 3-0.5 4z"/>
   <path class="st4" d="m315 242.8c3.4 0 6.6 0.9 11.1 3.1l2-12.6c-1.1-0.5-1.4-0.6-3-1.1l-5.1-1.3c-1.6-0.4-3.4-0.6-5.5-0.6-6.1 0-9.7 0.1-13.5 2.4-2 1.2-4.5 3-7.4 6.2l-1.5-0.5-12.6 9 0.6-5.1h-13.1l-7.5 47.3h12.4l4.5-25.5s1.8-3.5 2.6-4.6c2.3-3.1 4.3-3.1 6.9-3h0.9c-0.4 2.8-0.6 5.8-0.6 9 0 15.5 8.7 25.1 22.1 25.1 3.4 0 6.4-0.5 10.9-1.7l2.2-13.3c-4.1 2-7.5 3-10.5 3-7.2 0-11.5-5.3-11.5-14.2-0.1-12.6 6.4-21.6 15.6-21.6z"/>
   <path class="st4" d="m419.6 231.5-2.7 16.6c-3-4.5-6.5-6.6-11.3-6.6-6.5 0-12.5 3.7-16.2 10.7v-0.1l-7.9-4.7 0.6-5.1h-13.1l-7.5 47.3h12.4l4.1-25.5s3.2-3.5 4-4.6c1.8-2.4 3.8-2.9 5.5-3-1.4 4-2.3 8.7-2.3 14.1 0 11.8 6.1 19.7 15.1 19.7 4.5 0 8-1.6 11.4-5.3l-0.6 4.6h11.7l9.4-58.2h-12.6zm-15.1 47.1c-4.2 0-6.4-3.1-6.4-9.3 0-9.3 4-15.9 9.6-15.9 4.3 0 6.6 3.3 6.6 9.3 0 9.3-4 15.9-9.8 15.9z"/>
   <path class="st4" d="m347.5 268.6c-1.3-0.2-1.5-0.2-2.4-0.2-7 0-10.6 2.7-10.6 7.2 0 2.9 1.7 4.8 4.4 4.8 6 0.1 8.4-4.8 8.6-11.8zm9.8 21.1h-10.7l0.2-4.9c-2.7 3.7-6.4 5.7-13 5.7-6 0-11.4-5.2-11.4-13 0.1-11.2 8.4-18.2 21.8-18.2 1.4 0 3.6 0 5.5 0.2 0.4-1.6 0.5-2.2 0.5-3.1 0-3.1-2.6-4.1-8.3-4.1-3.5 0-7.5 0.6-10.2 1.4l-1.7 0.5-0.7 0.2 1.7-10.6c5.8-1.8 9.8-2.5 14.4-2.5 10.6 0 16.3 4.8 16.3 13.9 0 2.3 0.2 4.1-0.6 9.4l-2.6 16.8-0.4 3-0.5 4z"/>
   <path class="st4" d="m188.1 252.5c2.4 0 5.7 0.2 9.3 0.7l1.8-10.9c-3.6-0.5-8.2-1-11.1-1-13.8 0-18.4 7.4-18.4 16.2 0 5.6 2.7 9.9 9.2 13 5 2.4 5.9 2.8 5.9 5 0 2.9-2.6 4.6-7.4 4.6-3.7 0-7.1-0.6-11.1-1.9l-1.4 10.9 0.3 0.1 2.3 0.5c0.7 0.1 1.8 0.3 3.2 0.5 2.9 0.3 5.4 0.4 7 0.4 13.7 0 19.4-5.4 19.4-15.8 0-6.5-3.1-10.3-9.3-13.2-5.2-2.4-5.8-2.7-5.8-4.9 0-2.3 2.3-4.2 6.1-4.2z"/>
  </g>
  <g fill="#ffffff">
   <path class="st3" d="m331.4 229.7-2 12.6c-4.4-2.2-7.6-3.1-11.1-3.1-9.2 0-15.7 9-15.7 21.8 0 8.8 4.4 14.2 11.6 14.2 3.1 0 6.4-1 10.5-3l-2.2 13.3c-4.6 1.2-7.5 1.7-10.9 1.7-13.3 0-21.6-9.6-21.6-25.1 0-20.8 11.5-35.3 27.9-35.3 2.1 0 4 0.2 5.5 0.6l5.1 1.3c1.5 0.4 1.8 0.5 2.9 1z"/>
   <path class="st3" d="m291.7 238.3c-0.4-0.1-0.8-0.1-1.3-0.1-4.1 0-6.4 2.1-10.2 7.7l1.1-7.2h-11.2l-7.6 47.3h12.5c4.4-28.9 5.6-33.9 11.5-33.9h0.9c1.1-5.7 2.6-9.9 4.7-13.7z"/>
   <path class="st3" d="m220.4 285.5c-3.4 1.1-6 1.5-8.9 1.5-6.3 0-9.8-3.7-9.8-10.4 0-1.3 0.1-2.7 0.4-4.2l0.8-4.6 0.6-3.7 5.4-32.3h12.3l-1.4 7h6.3l-1.7 11.5h-6.3l-3.3 19.7c-0.1 0.9-0.2 1.5-0.2 2 0 2.4 1.3 3.5 4.2 3.5 1.4 0 2.5-0.1 3.3-0.4z"/>
   <path class="st3" d="m172.8 253.7c0 6 2.9 10.1 9.4 13.2 5 2.4 5.8 3.1 5.8 5.2 0 2.9-2.2 4.3-7.1 4.3-3.7 0-7.1-0.6-11.1-1.9l-1.7 10.9 0.6 0.1 2.3 0.5c0.7 0.1 1.8 0.3 3.2 0.4 2.9 0.3 5.2 0.4 6.8 0.4 13 0 19.1-5 19.1-15.8 0-6.5-2.5-10.3-8.7-13.2-5.2-2.4-5.8-2.9-5.8-5.1 0-2.6 2.1-3.9 6.1-3.9 2.4 0 5.7 0.3 8.9 0.7l1.8-11c-3.2-0.5-8.1-0.9-10.9-0.9-13.9 0.1-18.7 7.4-18.7 16.1z"/>
   <path class="st3" d="m425.9 286.1h-11.7l0.6-4.6c-3.4 3.7-6.9 5.3-11.4 5.3-9 0-15-7.8-15-19.7 0-15.7 9.2-29 20.1-29 4.8 0 8.5 2 11.9 6.5l2.7-16.6h12.2zm-18.2-11.2c5.8 0 9.8-6.6 9.8-16 0-6-2.3-9.3-6.6-9.3-5.6 0-9.6 6.6-9.6 15.9 0 6.3 2.2 9.4 6.4 9.4z"/>
   <path class="st3" d="m258.2 285c-4.2 1.3-8.3 1.9-12.7 1.9-13.8 0-21-7.3-21-21.2 0-16.3 9.2-28.2 21.6-28.2 10.2 0 16.7 6.7 16.7 17.2 0 3.5-0.4 6.9-1.5 11.7h-24.6c-0.1 0.7-0.1 1.1-0.1 1.5 0 5.5 3.7 8.3 10.9 8.3 4.4 0 8.4-0.9 12.8-3zm-6.9-28.1c0.1-1 0.1-1.8 0.1-2.4 0-3.8-2.2-6.1-5.9-6.1-3.9 0-6.8 3-7.9 8.5z"/>
   <polygon class="st3" points="120.6 241.3 104.8 286.1 96.3 286.1 95.3 241.6 87.8 286.1 76.3 286.1 85.9 227.9 103.7 227.9 104.2 263.9 116.2 227.9 135.5 227.9 125.9 286.1 113.5 286.1"/>
   <path class="st3" d="m156.4 265c-1.3-0.1-1.9-0.2-2.8-0.2-7 0-10.6 2.4-10.6 7.2 0 2.9 1.7 4.8 4.4 4.8 5.1 0 8.8-4.8 9-11.8zm9 21.1h-10.3l0.2-4.9c-3.1 3.9-7.3 5.7-13 5.7-6.7 0-11.3-5.3-11.3-12.9 0-11.5 8-18.2 21.7-18.2 1.4 0 3.2 0.1 5 0.4 0.4-1.6 0.5-2.2 0.5-3.1 0-3.1-2.2-4.3-7.9-4.3-3.5 0-7.5 0.5-10.3 1.3l-1.7 0.5-1.1 0.3 1.7-10.6c6.2-1.8 10.2-2.5 14.8-2.5 10.6 0 16.3 4.8 16.3 13.9 0 2.3-0.2 4.1-1 9.4l-2.6 16.8-0.4 3-0.5 4z"/>
   <path class="st3" d="m351.4 265c-1.3-0.1-1.9-0.2-2.8-0.2-7 0-10.6 2.4-10.6 7.2 0 2.9 1.7 4.8 4.4 4.8 5.2 0 8.8-4.8 9-11.8zm9 21.1h-10.3l0.2-4.9c-3.1 3.9-7.3 5.7-13 5.7-6.7 0-11.3-5.3-11.3-12.9 0-11.5 8-18.2 21.7-18.2 1.4 0 3.2 0.1 5 0.4 0.4-1.6 0.5-2.2 0.5-3.1 0-3.1-2.2-4.3-7.9-4.3-3.5 0-7.5 0.5-10.3 1.3l-1.7 0.5-1.1 0.3 1.7-10.6c6.2-1.8 10.2-2.5 14.8-2.5 10.6 0 16.3 4.8 16.3 13.9 0 2.3-0.2 4.1-1 9.4l-2.6 16.8-0.4 3-0.5 4z"/>
   <path class="st3" d="m393.6 238.3c-0.4-0.1-0.8-0.1-1.2-0.1-4.1 0-6.4 2.1-10.2 7.7l1.1-7.2h-11.2l-7.5 47.3h12.4c4.4-28.9 5.6-33.9 11.5-33.9h0.9c1.1-5.7 2.6-9.9 4.7-13.7z"/>
  </g>
 </g>
</svg>
