<?xml version="1.0" encoding="UTF-8"?>
<svg id="svg_phone" version="1.1" viewBox="0 0 40.666668 40.666668" xmlns="http://www.w3.org/2000/svg">
 <defs>
  <clipPath id="clipPath232">
   <path d="m0 30.5h30.5v-30.5h-30.5z"/>
  </clipPath>
 </defs>
 <g transform="matrix(1.3333333,0,0,-1.3333333,0,40.666667)">
  <g clip-path="url(#clipPath232)">
   <g transform="translate(2.625,29.25)">
    <path d="m0 0c-0.758 0-1.375-0.617-1.375-1.375v-25.25c0-0.758 0.617-1.375 1.375-1.375h5.25c0.758 0 1.375 0.617 1.375 1.375v25.25c0 0.758-0.617 1.375-1.375 1.375zm5.25-29h-5.25c-1.31 0-2.375 1.065-2.375 2.375v25.25c0 1.31 1.065 2.375 2.375 2.375h5.25c1.31 0 2.375-1.065 2.375-2.375v-25.25c0-1.31-1.065-2.375-2.375-2.375" fill="#34404b"/>
   </g>
   <g transform="translate(2.625,29.25)">
    <path d="m0 0c-0.758 0-1.375-0.617-1.375-1.375v-25.25c0-0.758 0.617-1.375 1.375-1.375h5.25c0.758 0 1.375 0.617 1.375 1.375v25.25c0 0.758-0.617 1.375-1.375 1.375zm5.25-29h-5.25c-1.31 0-2.375 1.065-2.375 2.375v25.25c0 1.31 1.065 2.375 2.375 2.375h5.25c1.31 0 2.375-1.065 2.375-2.375v-25.25c0-1.31-1.065-2.375-2.375-2.375z" fill="none" stroke="#34404b" stroke-miterlimit="10" stroke-width=".5"/>
   </g>
   <path d="m10.25 2.25h19v26h-19zm19.5-1h-20c-0.276 0-0.5 0.224-0.5 0.5v27c0 0.276 0.224 0.5 0.5 0.5h20c0.276 0 0.5-0.224 0.5-0.5v-27c0-0.276-0.224-0.5-0.5-0.5" fill="#34404b"/>
   <path d="m10.25 2.25h19v26h-19zm19.5-1h-20c-0.276 0-0.5 0.224-0.5 0.5v27c0 0.276 0.224 0.5 0.5 0.5h20c0.276 0 0.5-0.224 0.5-0.5v-27c0-0.276-0.224-0.5-0.5-0.5z" fill="none" stroke="#34404b" stroke-miterlimit="10" stroke-width=".5"/>
   <path d="m14.25 20.25h11v4h-11zm11.5-1h-12c-0.276 0-0.5 0.224-0.5 0.5v5c0 0.276 0.224 0.5 0.5 0.5h12c0.276 0 0.5-0.224 0.5-0.5v-5c0-0.276-0.224-0.5-0.5-0.5" fill="#34404b"/>
   <path d="m14.25 20.25h11v4h-11zm11.5-1h-12c-0.276 0-0.5 0.224-0.5 0.5v5c0 0.276 0.224 0.5 0.5 0.5h12c0.276 0 0.5-0.224 0.5-0.5v-5c0-0.276-0.224-0.5-0.5-0.5z" fill="none" stroke="#34404b" stroke-miterlimit="10" stroke-width=".5"/>
   <g transform="translate(17.75,5.75)">
    <path d="m0 0c-0.276 0-0.5 0.224-0.5 0.5v11c0 0.276 0.224 0.5 0.5 0.5s0.5-0.224 0.5-0.5v-11c0-0.276-0.224-0.5-0.5-0.5" fill="#34404b"/>
   </g>
   <g transform="translate(17.75,5.75)">
    <path d="m0 0c-0.276 0-0.5 0.224-0.5 0.5v11c0 0.276 0.224 0.5 0.5 0.5s0.5-0.224 0.5-0.5v-11c0-0.276-0.224-0.5-0.5-0.5z" fill="none" stroke="#34404b" stroke-miterlimit="10" stroke-width=".5"/>
   </g>
   <g transform="translate(21.75,5.75)">
    <path d="m0 0c-0.276 0-0.5 0.224-0.5 0.5v11c0 0.276 0.224 0.5 0.5 0.5s0.5-0.224 0.5-0.5v-11c0-0.276-0.224-0.5-0.5-0.5" fill="#34404b"/>
   </g>
   <g transform="translate(21.75,5.75)">
    <path d="m0 0c-0.276 0-0.5 0.224-0.5 0.5v11c0 0.276 0.224 0.5 0.5 0.5s0.5-0.224 0.5-0.5v-11c0-0.276-0.224-0.5-0.5-0.5z" fill="none" stroke="#34404b" stroke-miterlimit="10" stroke-width=".5"/>
   </g>
   <g transform="translate(25.25,13.25)">
    <path d="m0 0h-11c-0.276 0-0.5 0.224-0.5 0.5s0.224 0.5 0.5 0.5h11c0.276 0 0.5-0.224 0.5-0.5s-0.224-0.5-0.5-0.5" fill="#34404b"/>
   </g>
   <g transform="translate(25.25,13.25)">
    <path d="m0 0h-11c-0.276 0-0.5 0.224-0.5 0.5s0.224 0.5 0.5 0.5h11c0.276 0 0.5-0.224 0.5-0.5s-0.224-0.5-0.5-0.5z" fill="none" stroke="#34404b" stroke-miterlimit="10" stroke-width=".5"/>
   </g>
   <g transform="translate(25.25,9.25)">
    <path d="m0 0h-11c-0.276 0-0.5 0.224-0.5 0.5s0.224 0.5 0.5 0.5h11c0.276 0 0.5-0.224 0.5-0.5s-0.224-0.5-0.5-0.5" fill="#34404b"/>
   </g>
   <g transform="translate(25.25,9.25)">
    <path d="m0 0h-11c-0.276 0-0.5 0.224-0.5 0.5s0.224 0.5 0.5 0.5h11c0.276 0 0.5-0.224 0.5-0.5s-0.224-0.5-0.5-0.5z" fill="none" stroke="#34404b" stroke-miterlimit="10" stroke-width=".5"/>
   </g>
   <path d="m14.25 6.25h11v11h-11zm11.5-1h-12c-0.276 0-0.5 0.224-0.5 0.5v12c0 0.276 0.224 0.5 0.5 0.5h12c0.276 0 0.5-0.224 0.5-0.5v-12c0-0.276-0.224-0.5-0.5-0.5" fill="#34404b"/>
   <path d="m14.25 6.25h11v11h-11zm11.5-1h-12c-0.276 0-0.5 0.224-0.5 0.5v12c0 0.276 0.224 0.5 0.5 0.5h12c0.276 0 0.5-0.224 0.5-0.5v-12c0-0.276-0.224-0.5-0.5-0.5z" fill="none" stroke="#34404b" stroke-miterlimit="10" stroke-width=".5"/>
  </g>
 </g>
</svg>
