<?xml version="1.0" encoding="UTF-8"?>
<svg id="svg_mail" version="1.1" viewBox="0 0 41.333332 26.666668" xmlns="http://www.w3.org/2000/svg">
 <defs>
  <clipPath id="clipPath202">
   <path d="m0 20h31v-20h-31z"/>
  </clipPath>
 </defs>
 <g transform="matrix(1.3333333,0,0,-1.3333333,0,26.666667)">
  <g clip-path="url(#clipPath202)">
   <path d="m29.5 1.5h-28v17h28zm1 17.5c0 0.276-0.224 0.5-0.5 0.5h-29c-0.276 0-0.5-0.224-0.5-0.5v-18c0-0.276 0.224-0.5 0.5-0.5h29c0.276 0 0.5 0.224 0.5 0.5z" fill="#34404b"/>
   <path d="m29.5 1.5h-28v17h28zm1 17.5c0 0.276-0.224 0.5-0.5 0.5h-29c-0.276 0-0.5-0.224-0.5-0.5v-18c0-0.276 0.224-0.5 0.5-0.5h29c0.276 0 0.5 0.224 0.5 0.5z" fill="none" stroke="#34404b" stroke-miterlimit="10"/>
   <g transform="translate(4.5547,4.2803)">
    <path d="m0 0c0.093-0.161 0.261-0.251 0.434-0.251 0.085 0 0.17 0.022 0.249 0.066l8.687 4.99 2.004-1.583c0.011-9e-3 0.025-6e-3 0.037-0.013 0.083-0.056 0.175-0.095 0.273-0.095 0.097 0 0.189 0.039 0.272 0.095 0.012 7e-3 0.026 4e-3 0.037 0.013l2.004 1.583 8.688-4.99c0.078-0.044 0.164-0.066 0.249-0.066 0.172 0 0.34 0.09 0.433 0.251 0.138 0.239 0.055 0.545-0.184 0.683l-8.34 4.79 8.4 6.635c0.217 0.172 0.254 0.486 0.083 0.703-0.172 0.216-0.485 0.253-0.702 0.083l-10.94-8.643-10.941 8.643c-0.218 0.17-0.532 0.133-0.702-0.083-0.171-0.217-0.134-0.531 0.083-0.703l8.4-6.635-8.339-4.79c-0.24-0.138-0.323-0.444-0.185-0.683" fill="#34404b"/>
   </g>
   <g transform="translate(4.5547,4.2803)">
    <path d="m0 0c0.093-0.161 0.261-0.251 0.434-0.251 0.085 0 0.17 0.022 0.249 0.066l8.687 4.99 2.004-1.583c0.011-9e-3 0.025-6e-3 0.037-0.013 0.083-0.056 0.175-0.095 0.273-0.095 0.097 0 0.189 0.039 0.272 0.095 0.012 7e-3 0.026 4e-3 0.037 0.013l2.004 1.583 8.688-4.99c0.078-0.044 0.164-0.066 0.249-0.066 0.172 0 0.34 0.09 0.433 0.251 0.138 0.239 0.055 0.545-0.184 0.683l-8.34 4.79 8.4 6.635c0.217 0.172 0.254 0.486 0.083 0.703-0.172 0.216-0.485 0.253-0.702 0.083l-10.94-8.643-10.941 8.643c-0.218 0.17-0.532 0.133-0.702-0.083-0.171-0.217-0.134-0.531 0.083-0.703l8.4-6.635-8.339-4.79c-0.24-0.138-0.323-0.444-0.185-0.683z" fill="none" stroke="#34404b" stroke-miterlimit="10" stroke-width=".5"/>
   </g>
  </g>
 </g>
</svg>
