<?xml version="1.0" encoding="UTF-8"?>
<svg id="svg_add_cart" version="1.1" viewBox="0 0 38.817734 38.5" xmlns="http://www.w3.org/2000/svg">
 <defs>
  <clipPath id="clipPath26">
   <path d="M 0,28.875 H 29.113 V 0 H 0 Z"/>
  </clipPath>
 </defs>
 <g transform="matrix(1.3333333,0,0,-1.3333333,0,38.5)">
  <g clip-path="url(#clipPath26)">
   <g transform="translate(28.5439,15.6299)">
    <path d="m0 0c-0.078 0.13-0.209 0.218-0.358 0.24l-18.307 2.688c-0.276 0.031-0.526-0.15-0.566-0.423s0.148-0.527 0.421-0.568l17.697-2.847-2.998-8.345h-13.058l-5.224 13.679c-0.074 0.193-0.26 0.321-0.467 0.321h-4.184c-0.276 0-1 0.276-1 0v-1.5c0-0.276 0.224-0.5 0.5-0.5s0.5 0.224 0.5 0.5v0.5h3.84l5.225-13.679c0.074-0.193 0.258-0.321 0.466-0.321h13.75c0.209 0 0.397 0.38 0.469 0.576l3.332 9.125c0.053 0.142 0.038 0.424-0.038 0.554" fill="#34404b"/>
   </g>
   <g transform="translate(28.5439,15.6299)">
    <path d="m0 0c-0.078 0.13-0.209 0.218-0.358 0.24l-18.307 2.688c-0.276 0.031-0.526-0.15-0.566-0.423s0.148-0.527 0.421-0.568l17.697-2.847-2.998-8.345h-13.058l-5.224 13.679c-0.074 0.193-0.26 0.321-0.467 0.321h-4.184c-0.276 0-1 0.276-1 0v-1.5c0-0.276 0.224-0.5 0.5-0.5s0.5 0.224 0.5 0.5v0.5h3.84l5.225-13.679c0.074-0.193 0.258-0.321 0.466-0.321h13.75c0.209 0 0.397 0.38 0.469 0.576l3.332 9.125c0.053 0.142 0.038 0.424-0.038 0.554z" fill="none" stroke="#34404b" stroke-miterlimit="10"/>
   </g>
   <g transform="translate(14.2949,1.25)">
    <path d="m0 0c-0.844 0-1.528 0.684-1.528 1.528 0 0.843 0.684 1.528 1.528 1.528s1.527-0.685 1.527-1.528c0-0.844-0.683-1.528-1.527-1.528m0 4.056c-1.394 0-2.528-1.134-2.528-2.528s1.134-2.528 2.528-2.528 2.527 1.134 2.527 2.528-1.133 2.528-2.527 2.528" fill="#34404b"/>
   </g>
   <g transform="translate(14.2949,1.25)">
    <path d="m0 0c-0.844 0-1.528 0.684-1.528 1.528 0 0.843 0.684 1.528 1.528 1.528s1.527-0.685 1.527-1.528c0-0.844-0.683-1.528-1.527-1.528zm0 4.056c-1.394 0-2.528-1.134-2.528-2.528s1.134-2.528 2.528-2.528 2.527 1.134 2.527 2.528-1.133 2.528-2.527 2.528z" fill="none" stroke="#34404b" stroke-miterlimit="10" stroke-width=".5"/>
   </g>
   <g transform="translate(21.5166,1.25)">
    <path d="m0 0c-0.844 0-1.528 0.684-1.528 1.528 0 0.843 0.684 1.528 1.528 1.528s1.528-0.685 1.528-1.528c0-0.844-0.684-1.528-1.528-1.528m0 4.056c-1.394 0-2.528-1.134-2.528-2.528s1.134-2.528 2.528-2.528 2.528 1.134 2.528 2.528-1.134 2.528-2.528 2.528" fill="#34404b"/>
   </g>
   <g transform="translate(21.5166,1.25)">
    <path d="m0 0c-0.844 0-1.528 0.684-1.528 1.528 0 0.843 0.684 1.528 1.528 1.528s1.528-0.685 1.528-1.528c0-0.844-0.684-1.528-1.528-1.528zm0 4.056c-1.394 0-2.528-1.134-2.528-2.528s1.134-2.528 2.528-2.528 2.528 1.134 2.528 2.528-1.134 2.528-2.528 2.528z" fill="none" stroke="#34404b" stroke-miterlimit="10" stroke-width=".5"/>
   </g>
   <g transform="translate(21,23.375)">
    <path d="m0 0h2.5v-2.5c0-0.276 0.224-0.5 0.5-0.5s0.5 0.224 0.5 0.5v2.5h3.5c0.276 0 0.5 0.224 0.5 0.5s-0.224 0.5-0.5 0.5h-3.5v3.5c0 0.276-0.224 0.5-0.5 0.5s-0.5-0.224-0.5-0.5v-3.5h-2.5c-0.276 0-0.5-0.224-0.5-0.5s0.224-0.5 0.5-0.5" fill="#34404b"/>
   </g>
   <g transform="translate(21,23.375)">
    <path d="m0 0h2.5v-2.5c0-0.276 0.224-0.5 0.5-0.5s0.5 0.224 0.5 0.5v2.5h3.5c0.276 0 0.5 0.224 0.5 0.5s-0.224 0.5-0.5 0.5h-3.5v3.5c0 0.276-0.224 0.5-0.5 0.5s-0.5-0.224-0.5-0.5v-3.5h-2.5c-0.276 0-0.5-0.224-0.5-0.5s0.224-0.5 0.5-0.5z" fill="none" stroke="#34404b" stroke-miterlimit="10"/>
   </g>
  </g>
 </g>
</svg>
