<?xml version="1.0" encoding="UTF-8"?>
<svg id="svg_like" version="1.1" viewBox="0 0 40.333332 32.109333" xmlns="http://www.w3.org/2000/svg">
 <defs>
  <clipPath id="clipPath176">
   <path d="M 0,24.082 H 30.25 V 0 H 0 Z"/>
  </clipPath>
 </defs>
 <g transform="matrix(1.3333333,0,0,-1.3333333,0,32.109333)">
  <g clip-path="url(#clipPath176)">
   <g transform="translate(27.1743,10.8437)">
    <path d="m0 0-12.03-9.348-12.066 9.346-0.053 0.09c-1.145 1.938-1.775 3.006-1.775 4.753 0 3.94 3.153 7.147 7.029 7.147 2.737 0 5.245-1.622 6.391-4.132 0.081-0.178 0.259-0.293 0.455-0.293 0.195 0 0.373 0.115 0.454 0.292 1.135 2.483 3.644 4.086 6.391 4.086 3.876 0 7.03-3.181 7.03-7.092 0-1.75-0.632-2.825-1.826-4.849m-5.204 12.941c-2.81 0-5.402-1.47-6.844-3.815-1.449 2.373-4.043 3.862-6.847 3.862-4.427 0-8.029-3.655-8.029-8.147 0-2.02 0.761-3.31 1.914-5.261l7e-3 -0.013c0.022-0.06 0.055-0.118 0.1-0.168l12.502-9.828c0.095-0.105 0.23-0.165 0.371-0.165h1e-3c0.141 0 0.276 0.06 0.371 0.165l12.463 9.828c0.043 0.048 0.074 0.102 0.095 0.161h1e-3c1.159 1.964 1.925 3.262 1.925 5.289 0 4.462-3.602 8.092-8.03 8.092" fill="#34404b"/>
   </g>
   <g transform="translate(27.1743,10.8437)">
    <path d="m0 0-12.03-9.348-12.066 9.346-0.053 0.09c-1.145 1.938-1.775 3.006-1.775 4.753 0 3.94 3.153 7.147 7.029 7.147 2.737 0 5.245-1.622 6.391-4.132 0.081-0.178 0.259-0.293 0.455-0.293 0.195 0 0.373 0.115 0.454 0.292 1.135 2.483 3.644 4.086 6.391 4.086 3.876 0 7.03-3.181 7.03-7.092 0-1.75-0.632-2.825-1.826-4.849zm-5.204 12.941c-2.81 0-5.402-1.47-6.844-3.815-1.449 2.373-4.043 3.862-6.847 3.862-4.427 0-8.029-3.655-8.029-8.147 0-2.02 0.761-3.31 1.914-5.261l7e-3 -0.013c0.022-0.06 0.055-0.118 0.1-0.168l12.502-9.828c0.095-0.105 0.23-0.165 0.371-0.165h1e-3c0.141 0 0.276 0.06 0.371 0.165l12.463 9.828c0.043 0.048 0.074 0.102 0.095 0.161h1e-3c1.159 1.964 1.925 3.262 1.925 5.289 0 4.462-3.602 8.092-8.03 8.092z" fill="none" stroke="#34404b" stroke-miterlimit="10" stroke-width=".5"/>
   </g>
  </g>
 </g>
</svg>
