<?xml version="1.0" encoding="UTF-8"?>
<svg id="svg_visa" version="1.1" viewBox="0 0 512 323" xmlns="http://www.w3.org/2000/svg">
 <style type="text/css">.st0{fill-rule:evenodd;clip-rule:evenodd;fill:#DFDFE0;}
	.st1{fill-rule:evenodd;clip-rule:evenodd;fill:#025380;}
	.st2{fill-rule:evenodd;clip-rule:evenodd;fill:#F1A71E;}</style>
 <g transform="translate(0,-94.5)" clip-rule="evenodd" fill-rule="evenodd">
  <path class="st0" d="m489.2 94.5h-467.3c-9.1 0-14.8 1.4-17.9 4.3-2.7 3.3-4 8.7-4 16.7v280.3c0 14.3 7.4 21.7 21.9 21.7h467.3c15.2 0 22.8-7.4 22.8-21.7v-280.4c0-14.1-7.6-20.9-22.8-20.9z" fill="#dfdfe0"/>
  <path class="st1" d="m21.9 94.5c-9.1 0-14.8 1.4-17.9 4.3-2.7 3.3-4 8.7-4 16.7v54h512v-54c0-14.1-7.6-20.9-22.8-20.9h-467.3z" fill="#025380"/>
  <path class="st2" d="m0 395.8c0 14.3 7.4 21.7 21.9 21.7h467.3c15.2 0 22.8-7.4 22.8-21.7v-54h-512z" fill="#f1a71e"/>
  <g fill="#025380">
   <path class="st1" d="m176.6 212.6c0 2.5-0.4 4.5-1.4 5.8l-33.9 59.1-2.1-72h-54.2l18.2 8.7c5.2 3.3 7.9 7.6 7.9 13l5 76.5h26.5l63.5-98.2h-32.5c2 1.7 3 4.4 3 7.1z"/>
   <path class="st1" d="m395.8 208.4 2.1-2.9h-33.1c1.2 1.2 1.6 1.7 1.6 2.1-0.4 1.5-1.2 2.5-1.6 3.7l-48.2 87.9c-1.2 1.6-2.3 2.9-3.7 4.5h27.3l-1.4-2.9c0-2.5 1.4-7.2 4.3-13.7l5.8-10.8h28.1c1.2 9.1 1.9 16.7 2.3 22.3l-2.3 5.2h33.9l-5-7.4zm-20.1 54h-20.1l17.2-33.1z"/>
   <path class="st1" d="m292 200.4c-10.5 0-19.4 2.9-27.3 8.7-8.7 5-13 11.4-13 19.4 0 9.1 3.1 17 9.3 23l18.8 13c6.8 4.8 10.1 9.1 10.1 13 0 3.7-1.7 7-5 9.5s-7 3.7-11.6 3.7c-6.8 0-18.4-4.8-34.5-13.7v18c12.6 7.6 24.8 11.4 36.6 11.4 11.2 0 20.7-3.1 28.9-10.1 8.7-6.4 13-13.9 13-22.3 0-7-3.1-13.4-10.1-20.1l-18-13c-6-4.8-9.3-9.1-9.3-12.4 0-7.6 4.5-11.4 13.6-11.4 6.2 0 15.3 3.5 27.5 10.8l3.7-18.8c-10.4-5.8-21.1-8.7-32.7-8.7z"/>
   <path class="st1" d="m220 303.6c-0.4-4.1-1.2-7.8-1.6-11.6l24.6-79.4 5.8-7.2h-35.4c0.4 1.7 0.8 4.1 1.2 5.8 0 1.7 0 3.9-0.4 5.8l-24.6 78.6-5 7.9h35.4z"/>
  </g>
 </g>
</svg>
