<?xml version="1.0" encoding="UTF-8"?>
<svg id="svg_cart" version="1.1" viewBox="0 0 38.666668 27.7136" xmlns="http://www.w3.org/2000/svg">
 <defs>
  <clipPath id="clipPath76">
   <path d="m0 20.785h29v-20.785h-29z"/>
  </clipPath>
 </defs>
 <g transform="matrix(1.3333333,0,0,-1.3333333,0,27.7136)">
  <g clip-path="url(#clipPath76)">
   <g transform="translate(23.0752,1.5)">
    <path d="m0 0h-16.681l-2.499 12h21.488zm4.925 13h-4.036c-0.022 1-0.057 0.413-0.122 0.479l-5 5.125c-0.196 0.195-0.512 0.257-0.707 0.062-0.196-0.195-0.196-0.73 0-0.926l4.521-4.74h-15.836l4.522 4.771c0.195 0.196 0.195 0.637 0 0.833-0.196 0.195-0.512 0.257-0.707 0.062l-5-5.219c-0.066-0.065-0.101 0.553-0.122-0.447h-4.513c-0.277 0-0.5-0.224-0.5-0.5s0.223-0.5 0.5-0.5h1.874l2.625-12.602c0.048-0.232 0.253-0.398 0.489-0.398h17.5c0.24 0 0.445 0.17 0.491 0.405l2.422 12.595h1.599c0.276 0 0.5 0.224 0.5 0.5s-0.224 0.5-0.5 0.5" fill="#000000"/>
   </g>
   <g transform="translate(23.0752,1.5)">
    <path d="m0 0h-16.681l-2.499 12h21.488zm4.925 13h-4.036c-0.022 1-0.057 0.413-0.122 0.479l-5 5.125c-0.196 0.195-0.512 0.257-0.707 0.062-0.196-0.195-0.196-0.73 0-0.926l4.521-4.74h-15.836l4.522 4.771c0.195 0.196 0.195 0.637 0 0.833-0.196 0.195-0.512 0.257-0.707 0.062l-5-5.219c-0.066-0.065-0.101 0.553-0.122-0.447h-4.513c-0.277 0-0.5-0.224-0.5-0.5s0.223-0.5 0.5-0.5h1.874l2.625-12.602c0.048-0.232 0.253-0.398 0.489-0.398h17.5c0.24 0 0.445 0.17 0.491 0.405l2.422 12.595h1.599c0.276 0 0.5 0.224 0.5 0.5s-0.224 0.5-0.5 0.5z" fill="none" stroke="#000000" stroke-miterlimit="10"/>
   </g>
  </g>
 </g>
</svg>
