<?xml version="1.0" encoding="UTF-8"?>
<svg id="svg_global" version="1.1" viewBox="0 0 39.106133 35.333332" xmlns="http://www.w3.org/2000/svg">
 <defs>
  <clipPath id="clipPath102">
   <path d="M 0,26.5 H 29.33 V 0 H 0 Z"/>
  </clipPath>
 </defs>
 <g transform="matrix(1.3333333,0,0,-1.3333333,0,35.333333)">
  <g clip-path="url(#clipPath102)">
   <g transform="translate(2.8423,1.4053)">
    <path d="m0 0c-1.035 0-1.777 0.293-2.21 0.875-1.997 2.697 4.156 9.508 10.959 14.547 6.804 5.04 15.112 8.939 17.108 6.249 0.481-0.653 0.506-1.57 0.073-2.727-0.097-0.257-0.383-0.387-0.643-0.294-0.259 0.097-0.39 0.385-0.293 0.644 0.211 0.564 0.392 1.331 0.059 1.782-1.173 1.582-7.912-0.682-15.708-6.457-7.797-5.775-11.925-11.564-10.753-13.147 0.371-0.498 1.289-0.514 1.993-0.439 0.27 0.025 0.521-0.17 0.55-0.444 0.029-0.275-0.17-0.521-0.445-0.55-0.242-0.026-0.473-0.039-0.69-0.039" fill="#000000"/>
   </g>
   <g transform="translate(2.8423,1.4053)">
    <path d="m0 0c-1.035 0-1.777 0.293-2.21 0.875-1.997 2.697 4.156 9.508 10.959 14.547 6.804 5.04 15.112 8.939 17.108 6.249 0.481-0.653 0.506-1.57 0.073-2.727-0.097-0.257-0.383-0.387-0.643-0.294-0.259 0.097-0.39 0.385-0.293 0.644 0.211 0.564 0.392 1.331 0.059 1.782-1.173 1.582-7.912-0.682-15.708-6.457-7.797-5.775-11.925-11.564-10.753-13.147 0.371-0.498 1.289-0.514 1.993-0.439 0.27 0.025 0.521-0.17 0.55-0.444 0.029-0.275-0.17-0.521-0.445-0.55-0.242-0.026-0.473-0.039-0.69-0.039z" fill="none" stroke="#000000" stroke-miterlimit="10" stroke-width=".5"/>
   </g>
   <g transform="translate(14.8276,25.25)">
    <path d="m0 0c-6.617 0-12-5.383-12-12s5.383-12 12-12 12 5.383 12 12-5.383 12-12 12m0-25c-7.168 0-13 5.832-13 13s5.832 13 13 13 13-5.832 13-13-5.832-13-13-13" fill="#000000"/>
   </g>
   <g transform="translate(14.8276,25.25)">
    <path d="m0 0c-6.617 0-12-5.383-12-12s5.383-12 12-12 12 5.383 12 12-5.383 12-12 12zm0-25c-7.168 0-13 5.832-13 13s5.832 13 13 13 13-5.832 13-13-5.832-13-13-13z" fill="none" stroke="#000000" stroke-miterlimit="10" stroke-width=".5"/>
   </g>
   <g transform="translate(26.9644,12.502)">
    <path d="m0 0h-24c-0.276 0-0.5 0.224-0.5 0.5s0.224 0.5 0.5 0.5h24c0.276 0 0.5-0.224 0.5-0.5s-0.224-0.5-0.5-0.5" fill="#000000"/>
   </g>
   <g transform="translate(26.9644,12.502)">
    <path d="m0 0h-24c-0.276 0-0.5 0.224-0.5 0.5s0.224 0.5 0.5 0.5h24c0.276 0 0.5-0.224 0.5-0.5s-0.224-0.5-0.5-0.5z" fill="none" stroke="#000000" stroke-miterlimit="10" stroke-width=".5"/>
   </g>
   <g transform="translate(24.9644,5.502)">
    <path d="m0 0h-20c-0.276 0-0.5 0.224-0.5 0.5s0.224 0.5 0.5 0.5h20c0.276 0 0.5-0.224 0.5-0.5s-0.224-0.5-0.5-0.5" fill="#000000"/>
   </g>
   <g transform="translate(24.9644,5.502)">
    <path d="m0 0h-20c-0.276 0-0.5 0.224-0.5 0.5s0.224 0.5 0.5 0.5h20c0.276 0 0.5-0.224 0.5-0.5s-0.224-0.5-0.5-0.5z" fill="none" stroke="#000000" stroke-miterlimit="10" stroke-width=".5"/>
   </g>
   <g transform="translate(23.9644,20.502)">
    <path d="m0 0h-19c-0.276 0-0.5 0.224-0.5 0.5s0.224 0.5 0.5 0.5h19c0.276 0 0.5-0.224 0.5-0.5s-0.224-0.5-0.5-0.5" fill="#000000"/>
   </g>
   <g transform="translate(23.9644,20.502)">
    <path d="m0 0h-19c-0.276 0-0.5 0.224-0.5 0.5s0.224 0.5 0.5 0.5h19c0.276 0 0.5-0.224 0.5-0.5s-0.224-0.5-0.5-0.5z" fill="none" stroke="#000000" stroke-miterlimit="10" stroke-width=".5"/>
   </g>
   <g transform="translate(14.8281 .3164)">
    <path d="m0 0c-0.162 0-0.32 0.078-0.417 0.223-0.153 0.23-0.09 0.54 0.139 0.693 3.718 2.476 6.028 7.078 6.028 12.012 0 4.932-2.31 9.535-6.027 12.009-0.23 0.153-0.293 0.463-0.14 0.694 0.153 0.23 0.464 0.292 0.693 0.139 3.993-2.659 6.474-7.579 6.474-12.842 0-5.264-2.481-10.185-6.473-12.844-0.086-0.057-0.182-0.084-0.277-0.084" fill="#000000"/>
   </g>
   <g transform="translate(14.8281 .3164)">
    <path d="m0 0c-0.162 0-0.32 0.078-0.417 0.223-0.153 0.23-0.09 0.54 0.139 0.693 3.718 2.476 6.028 7.078 6.028 12.012 0 4.932-2.31 9.535-6.027 12.009-0.23 0.153-0.293 0.463-0.14 0.694 0.153 0.23 0.464 0.292 0.693 0.139 3.993-2.659 6.474-7.579 6.474-12.842 0-5.264-2.481-10.185-6.473-12.844-0.086-0.057-0.182-0.084-0.277-0.084z" fill="none" stroke="#000000" stroke-miterlimit="10" stroke-width=".5"/>
   </g>
   <g transform="translate(14.8271 .3164)">
    <path d="m0 0c-0.095 0-0.191 0.027-0.277 0.084-3.992 2.659-6.473 7.58-6.473 12.844 0 5.263 2.481 10.183 6.474 12.842 0.228 0.153 0.539 0.091 0.693-0.139 0.153-0.231 0.09-0.541-0.14-0.694-3.717-2.474-6.027-7.077-6.027-12.009 0-4.934 2.31-9.536 6.028-12.012 0.229-0.153 0.292-0.463 0.139-0.693-0.097-0.145-0.255-0.223-0.417-0.223" fill="#000000"/>
   </g>
   <g transform="translate(14.8271 .3164)">
    <path d="m0 0c-0.095 0-0.191 0.027-0.277 0.084-3.992 2.659-6.473 7.58-6.473 12.844 0 5.263 2.481 10.183 6.474 12.842 0.228 0.153 0.539 0.091 0.693-0.139 0.153-0.231 0.09-0.541-0.14-0.694-3.717-2.474-6.027-7.077-6.027-12.009 0-4.934 2.31-9.536 6.028-12.012 0.229-0.153 0.292-0.463 0.139-0.693-0.097-0.145-0.255-0.223-0.417-0.223z" fill="none" stroke="#000000" stroke-miterlimit="10" stroke-width=".5"/>
   </g>
  </g>
 </g>
</svg>
