<?xml version="1.0" encoding="UTF-8"?>
<svg id="svg_user" version="1.1" viewBox="0 0 37.118534 38.523468" xmlns="http://www.w3.org/2000/svg">
 <defs>
  <clipPath id="clipPath328">
   <path d="M 0,28.893 H 27.839 V 0 H 0 Z"/>
  </clipPath>
 </defs>
 <g transform="matrix(1.3333333,0,0,-1.3333333,0,38.523467)">
  <g clip-path="url(#clipPath328)">
   <g transform="translate(13.8057,7.125)">
    <path d="m0 0c-5.262 0-10 6.527-10 8v4.875c0 0.276 0.224 0.5 0.5 0.5s0.5-0.224 0.5-0.5v-4.875c0-0.99 4.31-7 9-7s9 6.01 9 7v4.875c0 0.276 0.224 0.5 0.5 0.5s0.5-0.224 0.5-0.5v-4.875c0-1.473-4.738-8-10-8" fill="#000000"/>
   </g>
   <g transform="translate(13.8057,7.125)">
    <path d="m0 0c-5.262 0-10 6.527-10 8v4.875c0 0.276 0.224 0.5 0.5 0.5s0.5-0.224 0.5-0.5v-4.875c0-0.99 4.31-7 9-7s9 6.01 9 7v4.875c0 0.276 0.224 0.5 0.5 0.5s0.5-0.224 0.5-0.5v-4.875c0-1.473-4.738-8-10-8z" fill="none" stroke="#000000" stroke-miterlimit="10" stroke-width=".5"/>
   </g>
   <g transform="translate(27.0889 .25)">
    <path d="m0 0c-0.276 0-0.5 0.224-0.5 0.5 0 4.626-2.276 8.25-5.182 8.25h-2.601c-0.277 0-0.5 0.224-0.5 0.5s0.223 0.5 0.5 0.5h2.601c3.524 0 6.182-3.977 6.182-9.25 0-0.276-0.224-0.5-0.5-0.5" fill="#000000"/>
   </g>
   <g transform="translate(27.0889 .25)">
    <path d="m0 0c-0.276 0-0.5 0.224-0.5 0.5 0 4.626-2.276 8.25-5.182 8.25h-2.601c-0.277 0-0.5 0.224-0.5 0.5s0.223 0.5 0.5 0.5h2.601c3.524 0 6.182-3.977 6.182-9.25 0-0.276-0.224-0.5-0.5-0.5z" fill="none" stroke="#000000" stroke-miterlimit="10" stroke-width=".5"/>
   </g>
   <g transform="translate(.75 .25)">
    <path d="m0 0c-0.276 0-0.5 0.224-0.5 0.5 0 5.273 2.563 9.25 5.961 9.25h2.595c0.276 0 0.5-0.224 0.5-0.5s-0.224-0.5-0.5-0.5h-2.595c-2.782 0-4.961-3.624-4.961-8.25 0-0.276-0.224-0.5-0.5-0.5" fill="#000000"/>
   </g>
   <g transform="translate(.75 .25)">
    <path d="m0 0c-0.276 0-0.5 0.224-0.5 0.5 0 5.273 2.563 9.25 5.961 9.25h2.595c0.276 0 0.5-0.224 0.5-0.5s-0.224-0.5-0.5-0.5h-2.595c-2.782 0-4.961-3.624-4.961-8.25 0-0.276-0.224-0.5-0.5-0.5z" fill="none" stroke="#000000" stroke-miterlimit="10" stroke-width=".5"/>
   </g>
   <g transform="translate(14.0439,27.125)">
    <path d="m0 0c-6.768 0-8.25-2.346-8.25-3.25 0-0.431-0.187-0.805-0.385-1.2-0.491-0.983-1.046-2.093 1.337-4.543 1.738 0.104 8.242 1.406 9.324 4.651 0.078 0.234 0.315 0.373 0.554 0.335 0.242-0.039 0.42-0.248 0.42-0.493 0-0.875 2.138-3.195 4.42-3.249 0.824 0.286 1.342 0.65 1.541 1.084 0.272 0.593-0.032 1.336-0.326 2.055-0.198 0.483-0.385 0.94-0.385 1.36 0 0.591-0.571 1.536-2.18 2.254-0.21 0.094-0.329 0.318-0.289 0.544 0.071 0.397 0.233 0.725 0.47 0.968-0.605 0.03-1.334-0.281-1.737-0.728-0.119-0.132-0.302-0.187-0.473-0.154-1.166 0.243-2.525 0.366-4.041 0.366m-7.5-10c-0.133 0-0.26 0.053-0.354 0.146-3.067 3.068-2.229 4.743-1.675 5.851 0.15 0.3 0.279 0.559 0.279 0.753 0 1.578 1.948 4.25 9.25 4.25 1.472 0 2.809-0.112 3.979-0.335 0.583 0.524 1.415 0.853 2.198 0.853 0.662 0 1.242-0.23 1.677-0.664 0.143-0.143 0.186-0.359 0.108-0.545-0.077-0.187-0.26-0.309-0.462-0.309-0.131 0-0.427 0-0.608-0.282 1.729-0.898 2.358-2.101 2.358-2.968 0-0.224 0.158-0.608 0.31-0.981 0.34-0.831 0.763-1.864 0.31-2.851-0.33-0.719-1.054-1.256-2.212-1.643-0.051-0.016-0.104-0.025-0.158-0.025-2.122 0-4.206 1.563-5.076 2.999-2.283-3.32-8.987-4.249-9.924-4.249" fill="#000000"/>
   </g>
   <g transform="translate(14.0439,27.125)">
    <path d="m0 0c-6.768 0-8.25-2.346-8.25-3.25 0-0.431-0.187-0.805-0.385-1.2-0.491-0.983-1.046-2.093 1.337-4.543 1.738 0.104 8.242 1.406 9.324 4.651 0.078 0.234 0.315 0.373 0.554 0.335 0.242-0.039 0.42-0.248 0.42-0.493 0-0.875 2.138-3.195 4.42-3.249 0.824 0.286 1.342 0.65 1.541 1.084 0.272 0.593-0.032 1.336-0.326 2.055-0.198 0.483-0.385 0.94-0.385 1.36 0 0.591-0.571 1.536-2.18 2.254-0.21 0.094-0.329 0.318-0.289 0.544 0.071 0.397 0.233 0.725 0.47 0.968-0.605 0.03-1.334-0.281-1.737-0.728-0.119-0.132-0.302-0.187-0.473-0.154-1.166 0.243-2.525 0.366-4.041 0.366zm-7.5-10c-0.133 0-0.26 0.053-0.354 0.146-3.067 3.068-2.229 4.743-1.675 5.851 0.15 0.3 0.279 0.559 0.279 0.753 0 1.578 1.948 4.25 9.25 4.25 1.472 0 2.809-0.112 3.979-0.335 0.583 0.524 1.415 0.853 2.198 0.853 0.662 0 1.242-0.23 1.677-0.664 0.143-0.143 0.186-0.359 0.108-0.545-0.077-0.187-0.26-0.309-0.462-0.309-0.131 0-0.427 0-0.608-0.282 1.729-0.898 2.358-2.101 2.358-2.968 0-0.224 0.158-0.608 0.31-0.981 0.34-0.831 0.763-1.864 0.31-2.851-0.33-0.719-1.054-1.256-2.212-1.643-0.051-0.016-0.104-0.025-0.158-0.025-2.122 0-4.206 1.563-5.076 2.999-2.283-3.32-8.987-4.249-9.924-4.249z" fill="none" stroke="#000000" stroke-miterlimit="10" stroke-width=".5"/>
   </g>
   <path d="m16.806 15h4v3h-4zm4.5-1h-5c-0.277 0-0.5 0.224-0.5 0.5v4c0 0.276 0.223 0.5 0.5 0.5h5c0.276 0 0.5-0.224 0.5-0.5v-4c0-0.276-0.224-0.5-0.5-0.5" fill="#000000"/>
   <path d="m16.806 15h4v3h-4zm4.5-1h-5c-0.277 0-0.5 0.224-0.5 0.5v4c0 0.276 0.223 0.5 0.5 0.5h5c0.276 0 0.5-0.224 0.5-0.5v-4c0-0.276-0.224-0.5-0.5-0.5z" fill="none" stroke="#000000" stroke-miterlimit="10" stroke-width=".5"/>
   <g transform="translate(12.3057,14)">
    <path d="m0 0h-5c-0.276 0-0.5 0.224-0.5 0.5v2.5c0 0.276 0.224 0.5 0.5 0.5s0.5-0.224 0.5-0.5v-2h4v3h-1c-0.276 0-0.5 0.224-0.5 0.5s0.224 0.5 0.5 0.5h1.5c0.276 0 0.5-0.224 0.5-0.5v-4c0-0.276-0.224-0.5-0.5-0.5" fill="#000000"/>
   </g>
   <g transform="translate(12.3057,14)">
    <path d="m0 0h-5c-0.276 0-0.5 0.224-0.5 0.5v2.5c0 0.276 0.224 0.5 0.5 0.5s0.5-0.224 0.5-0.5v-2h4v3h-1c-0.276 0-0.5 0.224-0.5 0.5s0.224 0.5 0.5 0.5h1.5c0.276 0 0.5-0.224 0.5-0.5v-4c0-0.276-0.224-0.5-0.5-0.5z" fill="none" stroke="#000000" stroke-miterlimit="10" stroke-width=".5"/>
   </g>
   <g transform="translate(15.8057,16)">
    <path d="m0 0h-3c-0.276 0-0.5 0.224-0.5 0.5s0.224 0.5 0.5 0.5h3c0.276 0 0.5-0.224 0.5-0.5s-0.224-0.5-0.5-0.5" fill="#000000"/>
   </g>
   <g transform="translate(15.8057,16)">
    <path d="m0 0h-3c-0.276 0-0.5 0.224-0.5 0.5s0.224 0.5 0.5 0.5h3c0.276 0 0.5-0.224 0.5-0.5s-0.224-0.5-0.5-0.5z" fill="none" stroke="#000000" stroke-miterlimit="10" stroke-width=".5"/>
   </g>
  </g>
 </g>
</svg>
